<svg width="75" height="75" viewBox="0 0 75 75" fill="none" xmlns="http://www.w3.org/2000/svg">
<path fill-rule="evenodd" clip-rule="evenodd" d="M46.2772 8.14434C45.418 7.95251 44.4549 7.92101 41.1492 7.89668L31.7919 7.8278C28.168 7.80112 25.7045 7.78595 23.7993 7.91162C21.9435 8.03403 20.9932 8.27367 20.3294 8.57151C18.732 9.28815 17.4291 10.4408 16.6075 11.8643C16.2661 12.456 15.9852 13.3056 15.8216 14.9698C15.6536 16.6784 15.6343 18.8902 15.6107 22.144L15.5225 34.2994C15.5073 36.3973 13.6008 38.084 11.2643 38.0668C8.92776 38.0496 7.04597 36.335 7.06119 34.2371L7.15051 21.9248C7.17264 18.8671 7.1909 16.3435 7.39289 14.2891C7.60267 12.1554 8.0339 10.1957 9.09348 8.35984C10.7366 5.5128 13.3423 3.20743 16.5371 1.77415C18.5972 0.849916 20.7859 0.491605 23.1652 0.33466C25.4561 0.183551 28.2667 0.20428 31.6723 0.229396L41.2043 0.299561C41.3498 0.300632 41.4935 0.301628 41.6353 0.302611C44.3218 0.321238 46.3516 0.335312 48.306 0.771676C50.0301 1.1566 51.6763 1.78266 53.1844 2.62688C54.894 3.58394 56.3193 4.88383 58.2056 6.60421C58.3052 6.69503 58.406 6.78702 58.5083 6.88019L67.7056 15.2604C67.8079 15.3536 67.9089 15.4455 68.0085 15.5363C69.8967 17.255 71.3233 18.5537 72.364 20.1026C73.282 21.4689 73.955 22.956 74.3583 24.5094C74.8155 26.2705 74.8013 28.093 74.7825 30.505C74.7815 30.6324 74.7805 30.7614 74.7796 30.8921L74.6624 47.0475C74.6402 50.1053 74.622 52.6289 74.42 54.6833C74.2102 56.8171 73.779 58.7767 72.7194 60.6126C71.0762 63.4596 68.4705 65.765 65.2758 67.1983C63.2157 68.1225 61.0269 68.4808 58.6476 68.6378C56.3568 68.7889 53.5462 68.7681 50.1407 68.743L44.8891 68.7044C42.5525 68.6872 40.6708 66.9726 40.686 64.8747C40.7012 62.7768 42.6077 61.0901 44.9442 61.1073L50.021 61.1446C53.6449 61.1713 56.1084 61.1865 58.0136 61.0608C59.8693 60.9384 60.8196 60.6988 61.4835 60.4009C63.0809 59.6843 64.3837 58.5316 65.2053 57.1081C65.5468 56.5165 65.8276 55.6668 65.9913 54.0026C66.1592 52.2941 66.1786 50.0822 66.2022 46.8284L66.3183 30.8298C66.3398 27.8617 66.3189 26.9966 66.1179 26.2224C65.9162 25.4457 65.5797 24.7021 65.1207 24.019C64.6632 23.3381 64.0059 22.7043 61.6836 20.5884L52.4863 12.2081C50.164 10.0922 49.4679 9.49268 48.7164 9.07195C47.9623 8.64983 47.1392 8.3368 46.2772 8.14434Z" fill="#FF3E4C"/>
<path fill-rule="evenodd" clip-rule="evenodd" d="M19.7146 39.6485C20.8072 39.6565 21.7726 40.2914 22.1114 41.2246L25.8659 51.5674L37.3288 55.0902C38.3631 55.408 39.0559 56.2841 39.0488 57.2651C39.0417 58.2461 38.3362 59.1119 37.2975 59.4145L25.7846 62.7681L21.8805 73.0545C21.5282 73.9827 20.5536 74.6033 19.461 74.5952C18.3684 74.5872 17.403 73.9523 17.0642 73.0191L13.3097 62.6763L1.84679 59.1536C0.812507 58.8357 0.119676 57.9596 0.126793 56.9786C0.13391 55.9976 0.839378 55.1318 1.87816 54.8292L13.391 51.4756L17.2951 41.1892C17.6474 40.2611 18.622 39.6404 19.7146 39.6485Z" fill="#FF3E4C"/>
<path fill-rule="evenodd" clip-rule="evenodd" d="M45.3576 4.12889C47.6941 4.14609 49.5759 5.86071 49.5607 7.95859L49.4504 23.1528L66.373 23.2774C68.7096 23.2946 70.5914 25.0092 70.5761 27.1071C70.5609 29.205 68.6545 30.8917 66.3179 30.8745L45.1647 30.7188C42.8281 30.7016 40.9463 28.987 40.9616 26.8891L41.0993 7.89631C41.1146 5.79842 43.021 4.11169 45.3576 4.12889Z" fill="#FF3E4C"/>
</svg>
