<svg width="75" height="75" viewBox="0 0 75 75" fill="none" xmlns="http://www.w3.org/2000/svg">
<g opacity="0.3">
<path opacity="0.3" d="M52.3762 15.39C50.3261 15.3883 48.3604 14.7089 46.9107 13.5009C45.461 12.2928 44.6457 10.6549 44.6437 8.94647V0H10.0912C7.41487 0 4.84814 0.885973 2.95566 2.46297C1.06319 4.03997 0 6.17879 0 8.409V59.1006C0.00397439 61.3287 1.06891 63.4644 2.96095 65.0386C4.853 66.6129 7.41747 67.4972 10.0912 67.4972H51.57C54.2438 67.4972 56.8082 66.6129 58.7003 65.0386C60.5923 63.4644 61.6573 61.3287 61.6612 59.1006V15.39H52.3762Z" fill="#FF3E4C"/>
</g>
<path d="M61.6612 15.39H52.3762C50.3261 15.3883 48.3604 14.7089 46.9107 13.5009C45.461 12.2928 44.6457 10.6549 44.6437 8.94647V0L61.6612 15.39Z" fill="#FF3E4C"/>
<path d="M48.975 47.1356H10.26C9.88705 47.1356 9.52936 47.0121 9.26563 46.7923C9.00191 46.5726 8.85376 46.2745 8.85376 45.9637C8.85475 45.6535 9.00334 45.3562 9.26696 45.1371C9.53058 44.918 9.8877 44.795 10.26 44.795H48.975C49.347 44.795 49.7037 44.9181 49.9667 45.1373C50.2297 45.3565 50.3775 45.6538 50.3775 45.9637C50.378 46.1175 50.3421 46.2698 50.2718 46.412C50.2016 46.5541 50.0983 46.6833 49.968 46.7921C49.8378 46.901 49.683 46.9874 49.5126 47.0463C49.3422 47.1052 49.1595 47.1356 48.975 47.1356Z" fill="#FF3E4C"/>
<path d="M48.975 33.9361H10.26C9.8877 33.9361 9.53058 33.813 9.26696 33.5939C9.00334 33.3749 8.85475 33.0777 8.85376 32.7674C8.85376 32.4566 9.00191 32.1585 9.26563 31.9387C9.52936 31.719 9.88705 31.5956 10.26 31.5956H48.975C49.1595 31.5956 49.3422 31.6259 49.5126 31.6848C49.683 31.7438 49.8378 31.8301 49.968 31.939C50.0983 32.0478 50.2016 32.177 50.2718 32.3192C50.3421 32.4614 50.378 32.6137 50.3775 32.7674C50.3775 33.0774 50.2297 33.3746 49.9667 33.5938C49.7037 33.813 49.347 33.9361 48.975 33.9361Z" fill="#FF3E4C"/>
<path d="M48.975 40.5358H10.26C9.88705 40.5358 9.52936 40.4123 9.26563 40.1925C9.00191 39.9728 8.85376 39.6747 8.85376 39.3639C8.85475 39.0537 9.00334 38.7564 9.26696 38.5373C9.53058 38.3183 9.8877 38.1953 10.26 38.1953H48.975C49.347 38.1953 49.7037 38.3184 49.9667 38.5376C50.2297 38.7567 50.3775 39.054 50.3775 39.3639C50.378 39.5177 50.3421 39.67 50.2718 39.8122C50.2016 39.9543 50.0983 40.0835 49.968 40.1924C49.8378 40.3012 49.683 40.3876 49.5126 40.4465C49.3422 40.5054 49.1595 40.5358 48.975 40.5358Z" fill="#FF3E4C"/>
<path d="M33.705 27.3364H10.26C9.8877 27.3364 9.53058 27.2134 9.26696 26.9943C9.00334 26.7752 8.85475 26.4779 8.85376 26.1677C8.85376 25.8569 9.00191 25.5588 9.26563 25.3391C9.52936 25.1193 9.88705 24.9958 10.26 24.9958H33.705C34.0773 24.9967 34.4341 25.1205 34.697 25.3401C34.9599 25.5598 35.1075 25.8574 35.1075 26.1677C35.1065 26.4774 34.9584 26.7741 34.6956 26.9931C34.4328 27.2121 34.0767 27.3355 33.705 27.3364V27.3364Z" fill="#FF3E4C"/>
<path d="M33.705 20.7366H10.26C9.8877 20.7366 9.53058 20.6136 9.26696 20.3945C9.00334 20.1754 8.85475 19.8782 8.85376 19.5679C8.85376 19.2572 9.00191 18.959 9.26563 18.7393C9.52936 18.5195 9.88705 18.3961 10.26 18.3961H33.705C34.0773 18.3969 34.4341 18.5207 34.697 18.7404C34.9599 18.9601 35.1075 19.2577 35.1075 19.5679C35.1065 19.8776 34.9584 20.1744 34.6956 20.3934C34.4328 20.6124 34.0767 20.7358 33.705 20.7366Z" fill="#FF3E4C"/>
<path d="M68.9775 53.3134H22.0875C18.7614 53.3134 16.065 55.5603 16.065 58.332V69.9815C16.065 72.7531 18.7614 75 22.0875 75H68.9775C72.3036 75 75 72.7531 75 69.9815V58.332C75 55.5603 72.3036 53.3134 68.9775 53.3134Z" fill="#FF3E4C"/>
<path d="M31.4474 66.6785V68.9503H28.6274V66.6785H31.4474Z" fill="white"/>
<path d="M35.595 65.6535V68.9501H32.8687V59.5537H37.2862C38.625 59.5537 39.6487 59.8318 40.35 60.3849C40.7048 60.6755 40.9818 61.0253 41.1628 61.4115C41.3438 61.7976 41.4246 62.2114 41.4 62.6254C41.4136 63.1717 41.2518 63.7112 40.9312 64.1878C40.6038 64.6539 40.1185 65.029 39.5362 65.266C38.8338 65.5426 38.0627 65.6765 37.2862 65.6566L35.595 65.6535ZM38.625 62.6254C38.625 61.7921 38.0775 61.3755 36.9825 61.3755H35.595V63.8223H36.9825C38.0775 63.8306 38.625 63.4316 38.625 62.6254Z" fill="white"/>
<path d="M52.1738 66.6847C51.7042 67.3952 50.995 67.9754 50.1337 68.3534C49.1647 68.7668 48.0871 68.972 46.9988 68.9502H42.7425V59.5538H46.9988C48.0879 59.531 49.1671 59.7316 50.1413 60.1381C51.0001 60.508 51.7076 61.0823 52.1738 61.7881C52.6617 62.5373 52.9072 63.3795 52.8862 64.2317C52.9066 65.0869 52.6611 65.9319 52.1738 66.6847V66.6847ZM49.2412 66.2129C49.5461 65.9521 49.7823 65.6413 49.9346 65.3001C50.087 64.959 50.1523 64.5951 50.1262 64.2317C50.1525 63.8688 50.0873 63.5053 49.9349 63.1647C49.7824 62.824 49.5462 62.5137 49.2412 62.2537C48.5592 61.755 47.6682 61.5011 46.7625 61.5474H45.4687V66.916H46.7625C47.6675 66.9618 48.5578 66.7092 49.2412 66.2129V66.2129Z" fill="white"/>
<path d="M61.785 59.5537V61.363H57.1613V63.4223H60.7313V65.1503H57.1613V68.9501H54.4313V59.5537H61.785Z" fill="white"/>
<path d="M48.2888 18.3961H41.6588C40.5031 18.3961 39.5663 19.1767 39.5663 20.1397V25.6645C39.5663 26.6275 40.5031 27.4082 41.6588 27.4082H48.2888C49.4444 27.4082 50.3813 26.6275 50.3813 25.6645V20.1397C50.3813 19.1767 49.4444 18.3961 48.2888 18.3961Z" fill="#FF3E4C"/>
</svg>
