<svg width="83" height="83" viewBox="0 0 83 83" fill="none" xmlns="http://www.w3.org/2000/svg">
<path d="M70.342 47.8513C72.4849 46.6151 74.3379 44.9339 75.7759 42.9211C77.214 40.9082 78.2037 38.6105 78.6784 36.1828C79.1531 33.7552 79.1017 31.2539 78.5278 28.8478C77.9538 26.4417 76.8705 24.1865 75.351 22.2344C73.8315 20.2823 71.9111 18.6785 69.7192 17.5313C67.5273 16.3841 65.1149 15.7201 62.6446 15.584C60.1743 15.4478 57.7035 15.8428 55.3988 16.7423C53.0941 17.6418 51.009 19.0248 49.2842 20.7982C48.3542 17.5079 46.7044 14.4654 44.4541 11.8907C42.2039 9.31604 39.4095 7.2736 36.273 5.91109C33.1365 4.54859 29.7363 3.90008 26.3184 4.01247C22.9005 4.12486 19.5503 4.99535 16.5101 6.56097C13.47 8.1266 10.8158 10.3482 8.73964 13.0651C6.66347 15.7821 5.21719 18.9264 4.50541 22.2707C3.79362 25.615 3.83413 29.0756 4.62399 32.4023C5.41386 35.729 6.93334 38.8386 9.07253 41.5062" stroke="#FF3E4C" stroke-width="8" stroke-linecap="round" stroke-linejoin="round"/>
<path d="M21.3033 55.9269L32.8418 44.3904V79" stroke="#FF3E4C" stroke-width="8" stroke-linecap="round" stroke-linejoin="round"/>
<path d="M61.6882 67.4635L50.1497 79V44.3904" stroke="#FF3E4C" stroke-width="8" stroke-linecap="round" stroke-linejoin="round"/>
</svg>
