<svg width="75" height="75" viewBox="0 0 75 75" fill="none" xmlns="http://www.w3.org/2000/svg">
<path fill-rule="evenodd" clip-rule="evenodd" d="M23.9946 1.79705e-06H51.0054C54.3595 -5.13504e-05 57.1276 -9.5057e-05 59.3826 0.184144C61.7247 0.375499 63.8776 0.786183 65.8998 1.81656C69.0359 3.41445 71.5855 5.96413 73.1834 9.10016C74.2138 11.1224 74.6245 13.2753 74.8158 15.6174C75.0001 17.8724 75 20.6405 75 23.9945V51.0055C75 54.3595 75.0001 57.1276 74.8158 59.3826C74.6245 61.7247 74.2138 63.8776 73.1834 65.8998C71.5855 69.0359 69.0359 71.5855 65.8998 73.1834C63.8776 74.2138 61.7247 74.6245 59.3826 74.8158C57.1276 75.0001 54.3595 75 51.0055 75H23.9945C20.6405 75 17.8724 75.0001 15.6174 74.8158C13.2753 74.6245 11.1224 74.2138 9.10016 73.1834C5.96413 71.5855 3.41445 69.0359 1.81656 65.8998C0.786183 63.8776 0.375499 61.7247 0.184144 59.3826C-9.5057e-05 57.1276 -5.13504e-05 54.3595 1.79705e-06 51.0054V23.9946C-5.13504e-05 20.6405 -9.5057e-05 17.8724 0.184144 15.6174C0.375499 13.2753 0.786183 11.1224 1.81656 9.10016C3.41445 5.96413 5.96413 3.41445 9.10016 1.81656C11.1224 0.786183 13.2753 0.375499 15.6174 0.184144C17.8724 -9.5057e-05 20.6405 -5.13504e-05 23.9946 1.79705e-06ZM16.296 8.4898C14.4693 8.63905 13.5351 8.90957 12.8834 9.24161C11.3154 10.0406 10.0406 11.3154 9.24161 12.8834C8.90957 13.5351 8.63905 14.4693 8.4898 16.296C8.33658 18.1714 8.33334 20.5976 8.33334 24.1667V50.8333C8.33334 54.4024 8.33658 56.8286 8.4898 58.704C8.63905 60.5307 8.90957 61.4649 9.24161 62.1166C10.0406 63.6846 11.3154 64.9594 12.8834 65.7584C13.5351 66.0904 14.4693 66.3609 16.296 66.5102C18.1714 66.6634 20.5976 66.6667 24.1667 66.6667H50.8333C54.4024 66.6667 56.8286 66.6634 58.704 66.5102C60.5307 66.3609 61.4649 66.0904 62.1166 65.7584C63.6846 64.9594 64.9594 63.6846 65.7584 62.1166C66.0904 61.4649 66.3609 60.5307 66.5102 58.704C66.6634 56.8286 66.6667 54.4024 66.6667 50.8333V24.1667C66.6667 20.5976 66.6634 18.1714 66.5102 16.296C66.3609 14.4693 66.0904 13.5351 65.7584 12.8834C64.9594 11.3154 63.6846 10.0406 62.1166 9.24161C61.4649 8.90957 60.5307 8.63905 58.704 8.4898C56.8286 8.33658 54.4024 8.33334 50.8333 8.33334H24.1667C20.5976 8.33334 18.1714 8.33658 16.296 8.4898ZM22.3274 19.9026C22.7614 18.0091 24.4462 16.6667 26.3888 16.6667H31.9443C33.887 16.6667 35.5718 18.0091 36.0057 19.9026L43.6447 53.2359C44.1587 55.479 42.7571 57.714 40.5141 58.228C38.271 58.7421 36.036 57.3404 35.5219 55.0974L34.3538 50H23.9795L22.8114 55.0974C22.2974 57.3404 20.0623 58.7421 17.8193 58.228C15.5762 57.714 14.1746 55.479 14.6886 53.2359L22.3274 19.9026ZM25.8892 41.6667H32.444L29.1666 27.3653L25.8892 41.6667ZM54.1667 16.6667C56.4679 16.6667 58.3333 18.5321 58.3333 20.8333V54.1667C58.3333 56.4679 56.4679 58.3333 54.1667 58.3333C51.8655 58.3333 50 56.4679 50 54.1667V20.8333C50 18.5321 51.8655 16.6667 54.1667 16.6667Z" fill="#FF3E4C"/>
</svg>
