<svg width="75" height="75" viewBox="0 0 75 75" fill="none" xmlns="http://www.w3.org/2000/svg">
<g opacity="0.3">
<path opacity="0.3" d="M52.3762 15.39C50.3257 15.3875 48.3601 14.7074 46.9105 13.4989C45.4609 12.2904 44.6458 10.6521 44.6438 8.94338V0H10.0912C7.41485 0 4.84817 0.885935 2.95569 2.46293C1.06321 4.03993 0 6.17882 0 8.40904V59.1007C0 61.3309 1.06321 63.4697 2.95569 65.0467C4.84817 66.6237 7.41485 67.5097 10.0912 67.5097H51.5663C52.8918 67.5101 54.2044 67.2929 55.4291 66.8705C56.6539 66.4481 57.7668 65.8287 58.7043 65.0478C59.6417 64.2669 60.3854 63.3398 60.8927 62.3194C61.4001 61.2989 61.6612 60.2052 61.6612 59.1007V15.39H52.3762Z" fill="#FF3E4C"/>
</g>
<path d="M61.6612 15.39H52.3762C50.3257 15.3875 48.3601 14.7074 46.9105 13.4989C45.4609 12.2904 44.6458 10.6521 44.6438 8.94338V0L61.6612 15.39Z" fill="#FF3E4C"/>
<path d="M68.9775 53.3134H22.0875C18.7613 53.3134 16.065 55.5602 16.065 58.3319V69.9814C16.065 72.7531 18.7613 75 22.0875 75H68.9775C72.3036 75 75 72.7531 75 69.9814V58.3319C75 55.5602 72.3036 53.3134 68.9775 53.3134Z" fill="#FF3E4C"/>
<path d="M38.9213 66.6785V68.9503H36.0975V66.6785H38.9213Z" fill="white"/>
<path d="M47.3287 67.2347H43.0987L42.3975 68.9502H39.5287L43.6537 59.6194H46.7963L50.9213 68.9502H48.0188L47.3287 67.2347ZM46.6238 65.5066L45.2213 62.0505L43.8038 65.5066H46.6238Z" fill="white"/>
<path d="M54.7125 59.5538V68.9503H51.9862V59.5538H54.7125Z" fill="white"/>
<path d="M28.5263 35.6485C28.5062 35.5124 28.5239 35.3744 28.5778 35.2449C28.6318 35.1155 28.7206 34.998 28.8375 34.9016C28.9399 34.8162 29.0615 34.7485 29.1953 34.7022C29.3292 34.656 29.4726 34.6322 29.6175 34.6322C29.7624 34.6322 29.9058 34.656 30.0396 34.7022C30.1735 34.7485 30.2951 34.8162 30.3975 34.9016C30.5 34.9869 30.5813 35.0883 30.6367 35.1998C30.6922 35.3113 30.7208 35.4309 30.7208 35.5516C30.7208 35.6723 30.6922 35.7919 30.6367 35.9034C30.5813 36.0149 30.5 36.1162 30.3975 36.2016C30.2818 36.299 30.1409 36.373 29.9855 36.418C29.8302 36.463 29.6645 36.4777 29.5012 36.461L16.6913 47.1355L35.8163 39.3233C35.8163 39.3233 37.965 32.6548 40.4025 30.6206L35.5275 26.5582C33.0862 28.5894 25.0837 30.3799 25.0837 30.3799L15.7087 46.3168L28.5263 35.6485Z" fill="#FF3E4C"/>
<path d="M45.9443 28.2507L38.3791 21.9467L34.6694 25.0379L42.2346 31.3419L45.9443 28.2507Z" fill="#FF3E4C"/>
</svg>
